Coordinates
version=1
nRows=10
nColumns=40
inDegrees=yes

Units are S.I. units (second, meters, Newtons, ...)
If the header above contains a line with 'inDegrees', this indicates whether rotational values are in degrees (yes) or radians (no).

endheader
time	pelvis_tilt	pelvis_list	pelvis_rotation	pelvis_tx	pelvis_ty	pelvis_tz	hip_flexion_r	hip_adduction_r	hip_rotation_r	knee_angle_r	knee_angle_r_beta	ankle_angle_r	subtalar_angle_r	mtp_angle_r	hip_flexion_l	hip_adduction_l	hip_rotation_l	knee_angle_l	knee_angle_l_beta	ankle_angle_l	subtalar_angle_l	mtp_angle_l	lumbar_extension	lumbar_bending	lumbar_rotation	arm_flex_r	arm_add_r	arm_rot_r	elbow_flex_r	pro_sup_r	wrist_flex_r	wrist_dev_r	arm_flex_l	arm_add_l	arm_rot_l	elbow_flex_l	pro_sup_l	wrist_flex_l	wrist_dev_l
      0.00000000	     -2.27890743	      2.90834810	      6.65583499	      0.06868826	      1.31044314	     -0.00788791	     29.98533417	     -3.71141575	     -3.01040145	     53.54352284	      0.93451077	     -9.80365613	    -15.14277832	      0.00000000	     70.76832699	     -7.68873739	     -2.70836505	    104.04842782	      1.81598765	      4.75108712	     -9.61658681	      0.00000000	    -54.34506165	     -1.93241614	     -6.58998703	     56.51182476	     13.45688105	    -37.60445688	     36.11148918	     71.61447583	      0.00000000	      0.00000000	     61.48381203	     11.40854638	    -37.62110392	     31.27550601	      3.00803366	      0.00000000	      0.00000000
      0.01700000	     -1.64902158	      3.05264055	      6.33850090	      0.06883457	      1.31150654	     -0.00744861	     30.05015528	     -3.61522467	     -2.71293226	     57.03494440	      0.99544757	     -8.64525574	    -15.26984942	      0.00000000	     68.69720199	     -7.81698149	     -3.26896673	    100.45064858	      1.75319455	      5.74676933	     -9.38974209	      0.00000000	    -54.90907450	     -2.10747327	     -6.48729621	     56.48142954	     13.52300095	    -37.63436160	     36.14110771	     71.72461289	      0.00000000	      0.00000000	     61.29612963	     11.39470795	    -37.76864628	     31.41951267	      3.20029933	      0.00000000	      0.00000000
      0.03300000	     -0.94032928	      3.31225143	      6.00430297	      0.06898535	      1.31275981	     -0.00701143	     29.98303059	     -3.64172173	     -2.39403987	     60.40567514	      1.05427792	     -7.98083599	    -15.18567013	      0.00000000	     66.46593706	     -7.89970580	     -3.96445035	     96.73634290	      1.68836769	      6.45652395	     -9.15960543	      0.00000000	    -55.57683290	     -2.36991626	     -6.46999858	     56.46229062	     13.59225520	    -37.67765341	     36.19113773	     71.89481222	      0.00000000	      0.00000000	     61.17718177	     11.34528047	    -37.83751497	     31.47726998	      3.21755827	      0.00000000	      0.00000000
      0.05000000	     -0.36161557	      3.29741350	      5.64573586	      0.06913513	      1.31372188	     -0.00668328	     30.38053174	     -3.42260123	     -2.10233750	     64.07922904	      1.11839353	     -7.30203165	    -15.22036994	      0.00000000	     64.19687255	     -8.02375635	     -4.36626050	     92.90488406	      1.62149612	      7.04672287	     -9.12619536	      0.00000000	    -56.08107965	     -2.45665930	     -6.25990746	     56.48134090	     13.68894069	    -37.69399611	     36.20805078	     72.01698248	      0.00000000	      0.00000000	     61.04328101	     11.29383276	    -37.95555130	     31.56824498	      3.26655212	      0.00000000	      0.00000000
      0.06700000	      0.06511547	      2.97154044	      5.20913249	      0.06926416	      1.31438116	     -0.00635654	     31.44586361	     -2.93746868	     -1.82433445	     68.21681302	      1.19060799	     -6.76848665	    -15.23562636	      0.00000000	     61.81424029	     -8.21290337	     -4.37480340	     88.88399024	      1.55131828	      7.72127740	     -9.30742641	      0.00000000	    -56.39889599	     -2.41944765	     -5.83404465	     56.58024360	     13.82321028	    -37.66155015	     36.15010476	     72.00148395	      0.00000000	      0.00000000	     60.92626565	     11.23118430	    -38.21449654	     31.70256854	      3.50746516	      0.00000000	      0.00000000
      0.08300000	      0.41800281	      2.52592674	      4.65430119	      0.06941473	      1.31492206	     -0.00600182	     32.92111113	     -2.30469243	     -1.44524128	     72.61290131	      1.26733421	     -6.47264425	    -15.14372887	      0.00000000	     59.25044285	     -8.47175595	     -4.25597237	     84.64410259	      1.47731828	      8.19528347	     -9.62076320	      0.00000000	    -56.64615235	     -2.40220466	     -5.28183926	     56.72029658	     13.98210746	    -37.62867514	     36.06701985	     71.99286446	      0.00000000	      0.00000000	     60.84540157	     11.19649376	    -38.57573217	     31.86458188	      3.65348605	      0.00000000	      0.00000000
      0.10000000	      0.65446328	      1.88632227	      4.10618412	      0.06951993	      1.31524585	     -0.00554597	     34.68565360	     -1.48237526	     -1.21870424	     77.10743277	      1.34577858	     -5.81280632	    -15.03817849	      0.00000000	     56.61486272	     -8.80461737	     -4.00505411	     80.15214442	      1.39891882	      8.06153876	     -9.98842470	      0.00000000	    -56.77690570	     -2.27582751	     -4.56323678	     56.84705130	     14.11559233	    -37.55185604	     35.99256097	     71.98789154	      0.00000000	      0.00000000	     60.74254516	     11.16366731	    -38.85277033	     32.03527847	      3.80656607	      0.00000000	      0.00000000
      0.11700000	      0.81180692	      1.22696642	      3.44691025	      0.06955058	      1.31540665	     -0.00504833	     36.75298452	     -0.59301348	     -0.97630799	     81.88574312	      1.42917583	     -4.67612224	    -14.77885280	      0.00000000	     53.70386724	     -9.20725731	     -3.96952418	     75.14929214	      1.31160258	      7.22407292	    -10.53355869	      0.00000000	    -56.85622693	     -2.21150934	     -3.77038563	     57.01734742	     14.25514395	    -37.40751787	     35.91926893	     72.11345733	      0.00000000	      0.00000000	     60.65889266	     11.12319016	    -39.19138638	     32.21065707	      3.72669583	      0.00000000	      0.00000000
      0.13300000	      0.83968435	      0.38459763	      2.80044159	      0.06958106	      1.31531326	     -0.00453583	     39.12912308	      0.43917305	     -0.93540398	     86.72182160	      1.51358132	     -3.31738270	    -14.41567402	      0.00000000	     50.67514323	     -9.63813527	     -3.79904694	     69.77989367	      1.21788890	      5.84359123	    -11.20040639	      0.00000000	    -56.81300923	     -2.02739861	     -2.81480227	     57.16134722	     14.35816645	    -37.21088025	     35.82572291	     72.21951487	      0.00000000	      0.00000000	     60.56389183	     11.11040683	    -39.50847983	     32.38712173	      3.75397667	      0.00000000	      0.00000000
      0.15000000	      0.75952810	     -0.36506729	      2.07033297	      0.06948679	      1.31505416	     -0.00376039	     41.73215076	      1.44104401	     -0.82289630	     91.19441574	      1.59164281	     -2.10293075	    -14.05156069	      0.00000000	     47.62012826	    -10.05258552	     -3.86777178	     64.65284810	      1.12840507	      4.27392591	    -12.13190827	      0.00000000	    -56.68158038	     -2.00380337	     -1.91838136	     57.29227774	     14.46953659	    -37.03903252	     35.73802970	     72.38764403	      0.00000000	      0.00000000	     60.45549827	     11.09895010	    -39.84600218	     32.57373999	      3.69533864	      0.00000000	      0.00000000
